<svg width="509" height="521" viewBox="0 0 509 521" fill="none" xmlns="http://www.w3.org/2000/svg">
<path fill-rule="evenodd" clip-rule="evenodd" d="M328 184C328 263.529 263.529 328 184 328C104.471 328 40 263.529 40 184C40 104.471 104.471 40 184 40C263.529 40 328 104.471 328 184ZM292.819 332.388C262.342 354.776 224.715 368 184 368C82.3796 368 0 285.62 0 184C0 82.3796 82.3796 0 184 0C285.62 0 368 82.3796 368 184C368 230.484 350.763 272.942 322.331 305.331L509 492L480.716 520.284L292.819 332.388Z" fill="white"/>
</svg>
