<svg width="807" height="300" viewBox="0 0 807 300" fill="none" xmlns="http://www.w3.org/2000/svg">
<path fill-rule="evenodd" clip-rule="evenodd" d="M130 30H307H350C416.274 30 470 83.7258 470 150C470 216.274 416.274 270 350 270H307H130V30ZM307 0H130H100V30V67H0V97H100V203H0V233H100V270V300H130H307H350C432.843 300 500 232.843 500 150C500 177.614 522.386 200 550 200C572.388 200 591.34 185.286 597.711 165H691V135H597.711C591.34 114.714 572.388 100 550 100C522.386 100 500 122.386 500 150C500 67.1573 432.843 0 350 0H307ZM570 150C570 161.046 561.046 170 550 170C538.954 170 530 161.046 530 150C530 138.954 538.954 130 550 130C561.046 130 570 138.954 570 150Z" fill="white"/>
</svg>
