<svg width="807" height="300" viewBox="0 0 807 300" fill="none" xmlns="http://www.w3.org/2000/svg">
<path fill-rule="evenodd" clip-rule="evenodd" d="M130 30H307H350C416.274 30 470 83.7258 470 150C470 216.274 416.274 270 350 270H307H130V30ZM307 0H130H100V30V67H0V97H100V203H0V233H100V270V300H130H307H350C432.843 300 500 232.843 500 150C500 177.614 522.386 200 550 200C572.388 200 591.34 185.286 597.711 165H691V135H597.711C591.34 114.714 572.388 100 550 100C522.386 100 500 122.386 500 150C500 67.1573 432.843 0 350 0H307ZM570 150C570 161.046 561.046 170 550 170C538.954 170 530 161.046 530 150C530 138.954 538.954 130 550 130C561.046 130 570 138.954 570 150Z" fill="white"/>
<path d="M162.391 122.922L162.812 132.484C168.625 125.172 176.219 121.516 185.594 121.516C201.672 121.516 209.781 130.586 209.922 148.727V199H196.914V148.656C196.867 143.172 195.602 139.117 193.117 136.492C190.68 133.867 186.859 132.555 181.656 132.555C177.438 132.555 173.734 133.68 170.547 135.93C167.359 138.18 164.875 141.133 163.094 144.789V199H150.086V122.922H162.391ZM276.508 199C275.758 197.5 275.148 194.828 274.68 190.984C268.633 197.266 261.414 200.406 253.023 200.406C245.523 200.406 239.359 198.297 234.531 194.078C229.75 189.812 227.359 184.422 227.359 177.906C227.359 169.984 230.359 163.844 236.359 159.484C242.406 155.078 250.891 152.875 261.812 152.875H274.469V146.898C274.469 142.352 273.109 138.742 270.391 136.07C267.672 133.352 263.664 131.992 258.367 131.992C253.727 131.992 249.836 133.164 246.695 135.508C243.555 137.852 241.984 140.688 241.984 144.016H228.906C228.906 140.219 230.242 136.562 232.914 133.047C235.633 129.484 239.289 126.672 243.883 124.609C248.523 122.547 253.609 121.516 259.141 121.516C267.906 121.516 274.773 123.719 279.742 128.125C284.711 132.484 287.289 138.508 287.477 146.195V181.211C287.477 188.195 288.367 193.75 290.148 197.875V199H276.508ZM254.922 189.086C259 189.086 262.867 188.031 266.523 185.922C270.18 183.812 272.828 181.07 274.469 177.695V162.086H264.273C248.336 162.086 240.367 166.75 240.367 176.078C240.367 180.156 241.727 183.344 244.445 185.641C247.164 187.938 250.656 189.086 254.922 189.086ZM320.172 122.922L320.594 132.484C326.406 125.172 334 121.516 343.375 121.516C359.453 121.516 367.562 130.586 367.703 148.727V199H354.695V148.656C354.648 143.172 353.383 139.117 350.898 136.492C348.461 133.867 344.641 132.555 339.438 132.555C335.219 132.555 331.516 133.68 328.328 135.93C325.141 138.18 322.656 141.133 320.875 144.789V199H307.867V122.922H320.172ZM384.156 160.328C384.156 148.656 386.922 139.281 392.453 132.203C397.984 125.078 405.227 121.516 414.18 121.516C423.086 121.516 430.141 124.562 435.344 130.656V91H448.352V199H436.398L435.766 190.844C430.562 197.219 423.32 200.406 414.039 200.406C405.227 200.406 398.031 196.797 392.453 189.578C386.922 182.359 384.156 172.938 384.156 161.312V160.328ZM397.164 161.805C397.164 170.43 398.945 177.18 402.508 182.055C406.07 186.93 410.992 189.367 417.273 189.367C425.523 189.367 431.547 185.664 435.344 178.258V143.312C431.453 136.141 425.477 132.555 417.414 132.555C411.039 132.555 406.07 135.016 402.508 139.938C398.945 144.859 397.164 152.148 397.164 161.805Z" fill="white"/>
<path d="M701.797 96.625H715.367V169.117C715.367 178.914 712.414 186.578 706.508 192.109C700.648 197.641 692.82 200.406 683.023 200.406C672.852 200.406 664.93 197.805 659.258 192.602C653.586 187.398 650.75 180.109 650.75 170.734H664.25C664.25 176.594 665.844 181.164 669.031 184.445C672.266 187.727 676.93 189.367 683.023 189.367C688.602 189.367 693.102 187.609 696.523 184.094C699.992 180.578 701.75 175.656 701.797 169.328V96.625ZM768.523 153.367C756.945 150.039 748.508 145.961 743.211 141.133C737.961 136.258 735.336 130.258 735.336 123.133C735.336 115.07 738.547 108.414 744.969 103.164C751.438 97.8672 759.828 95.2188 770.141 95.2188C777.172 95.2188 783.43 96.5781 788.914 99.2969C794.445 102.016 798.711 105.766 801.711 110.547C804.758 115.328 806.281 120.555 806.281 126.227H792.711C792.711 120.039 790.742 115.188 786.805 111.672C782.867 108.109 777.312 106.328 770.141 106.328C763.484 106.328 758.281 107.805 754.531 110.758C750.828 113.664 748.977 117.719 748.977 122.922C748.977 127.094 750.734 130.633 754.25 133.539C757.812 136.398 763.836 139.023 772.32 141.414C780.852 143.805 787.508 146.453 792.289 149.359C797.117 152.219 800.68 155.57 802.977 159.414C805.32 163.258 806.492 167.781 806.492 172.984C806.492 181.281 803.258 187.938 796.789 192.953C790.32 197.922 781.672 200.406 770.844 200.406C763.812 200.406 757.25 199.07 751.156 196.398C745.062 193.68 740.352 189.977 737.023 185.289C733.742 180.602 732.102 175.281 732.102 169.328H745.672C745.672 175.516 747.945 180.414 752.492 184.023C757.086 187.586 763.203 189.367 770.844 189.367C777.969 189.367 783.43 187.914 787.227 185.008C791.023 182.102 792.922 178.141 792.922 173.125C792.922 168.109 791.164 164.242 787.648 161.523C784.133 158.758 777.758 156.039 768.523 153.367Z" fill="white"/>
</svg>
